<?xml version="1.0" encoding="utf-8"?>
<!DOCTYPE svg
  PUBLIC '-//W3C//DTD SVG 1.0//EN'
  'http://www.w3.org/TR/2001/REC-SVG-20010904/DTD/svg10.dtd'>
<svg width="510" height="264" preserveAspectRatio="xMinYMin meet" viewBox="0 0 510 264" xmlns="http://www.w3.org/2000/svg" version="1.0" fill-rule="evenodd" xmlns:xlink="http://www.w3.org/1999/xlink">
	<title>...</title>
	<desc>...</desc>
	<clipPath id="clip">
		<rect x="0" y="0" width="510" height="264"/>
	</clipPath>
	<g id="group" transform="scale(1,-1) translate(0,-264)" style="clip-path: url(#clip)">
		<g transform="">
			<rect x="0" y="0" width="188" height="264" rx="8" ry="8" style="stroke: none; stroke-linecap: butt; stroke-width: 1; fill: rgb(96%,96%,98%); fill-rule: evenodd;"/>
			<text x="14" y="241" style="font-family: Bold; font-size: 8.7px;fill: rgb(38%,35%,42%); stroke:none;" transform="translate(0,482) scale(1,-1)">NAVIGATION</text>
			<text x="14" y="218" style="font-family: Bold; font-size: 10.5px;fill: rgb(41%,26%,48%); stroke:none;" transform="translate(0,436) scale(1,-1)">Listen</text>
			<text x="14" y="202" style="font-family: Body; font-size: 9px;fill: rgb(38%,35%,42%); stroke:none;" transform="translate(0,404) scale(1,-1)">All episodes / Current queue /</text>
			<text x="14" y="190" style="font-family: Body; font-size: 9px;fill: rgb(38%,35%,42%); stroke:none;" transform="translate(0,380) scale(1,-1)">Downloads</text>
			<text x="14" y="161" style="font-family: Bold; font-size: 10.5px;fill: rgb(41%,26%,48%); stroke:none;" transform="translate(0,322) scale(1,-1)">Library</text>
			<text x="14" y="145" style="font-family: Body; font-size: 9px;fill: rgb(38%,35%,42%); stroke:none;" transform="translate(0,290) scale(1,-1)">Sources / Folders / Collections /</text>
			<text x="14" y="133" style="font-family: Body; font-size: 9px;fill: rgb(38%,35%,42%); stroke:none;" transform="translate(0,266) scale(1,-1)">Highlights</text>
			<text x="14" y="104" style="font-family: Bold; font-size: 10.5px;fill: rgb(41%,26%,48%); stroke:none;" transform="translate(0,208) scale(1,-1)">Discover</text>
			<text x="14" y="88" style="font-family: Body; font-size: 9px;fill: rgb(38%,35%,42%); stroke:none;" transform="translate(0,176) scale(1,-1)">Find podcasts / Add local media</text>
			<text x="14" y="16" style="font-family: Bold; font-size: 8px;fill: rgb(38%,35%,42%); stroke:none;" transform="translate(0,32) scale(1,-1)">PROPOSED STRUCTURE</text>
			<rect x="207" y="0" width="303" height="264" rx="8" ry="8" style="stroke: rgb(86%,83%,89%); stroke-linecap: butt; stroke-width: 0.8; fill: rgb(100%,100%,100%); fill-rule: evenodd;"/>
			<text x="222" y="238" style="font-family: Bold; font-size: 18px;fill: rgb(14%,12%,21%); stroke:none;" transform="translate(0,476) scale(1,-1)">Listen</text>
			<text x="222" y="215" style="font-family: Body; font-size: 9px;fill: rgb(41%,26%,48%); stroke:none;" transform="translate(0,430) scale(1,-1)">All episodes   Current queue   Downloads</text>
			<path d="M 301,207 L 380,207 Z" style="stroke: rgb(41%,26%,48%); stroke-linecap: butt; stroke-width: 2;"/>
			<text x="222" y="186" style="font-family: Bold; font-size: 11px;fill: rgb(14%,12%,21%); stroke:none;" transform="translate(0,372) scale(1,-1)">Playing from History Weekly</text>
			<text x="222" y="170" style="font-family: Body; font-size: 9px;fill: rgb(38%,35%,42%); stroke:none;" transform="translate(0,340) scale(1,-1)">Oldest first · continuous playback on</text>
			<rect x="215" y="109" width="287" height="44" rx="5" ry="5" style="stroke: none; stroke-linecap: butt; stroke-width: 1; fill: rgb(93%,90%,95%); fill-rule: evenodd;"/>
			<text x="224" y="139" style="font-family: Bold; font-size: 10.5px;fill: rgb(14%,12%,21%); stroke:none;" transform="translate(0,278) scale(1,-1)">P · A city wakes</text>
			<text x="224" y="123" style="font-family: Body; font-size: 8.7px;fill: rgb(38%,35%,42%); stroke:none;" transform="translate(0,246) scale(1,-1)">Playing · streaming</text>
			<polygon points="480 140, 480 124, 492 132" style="stroke: none; stroke-linecap: butt; stroke-width: 1; fill: rgb(41%,26%,48%); fill-rule: evenodd;"/>
			<text x="224" y="91" style="font-family: Bold; font-size: 10.5px;fill: rgb(14%,12%,21%); stroke:none;" transform="translate(0,182) scale(1,-1)">Q · The railway age</text>
			<text x="224" y="75" style="font-family: Body; font-size: 8.7px;fill: rgb(38%,35%,42%); stroke:none;" transform="translate(0,150) scale(1,-1)">Next · requires internet</text>
			<text x="222" y="36" style="font-family: Bold; font-size: 10px;fill: rgb(41%,26%,48%); stroke:none;" transform="translate(0,72) scale(1,-1)">Change playback queue</text>
			<text x="222" y="15" style="font-family: Body; font-size: 9px;fill: rgb(38%,35%,42%); stroke:none;" transform="translate(0,30) scale(1,-1)">Listen                 Library                 Discover</text>
		</g>
	</g>
</svg>
